<?xml version="1.0" encoding="UTF-8" standalone="no"?>
<!-- Created with Inkscape (http://www.inkscape.org/) -->

<svg width="1000" height="1000" viewBox="0 0 264.58332 264.58334" version="1.1" id="svg5"
   xmlns="http://www.w3.org/2000/svg" xmlns:svg="http://www.w3.org/2000/svg"
   xmlns:rdf="http://www.w3.org/1999/02/22-rdf-syntax-ns#" xmlns:cc="http://creativecommons.org/ns#"
   xmlns:dc="http://purl.org/dc/elements/1.1/">
   <defs id="defs2" />
   <rect
      style="fill:#f7f7f7;fill-opacity:1;stroke:none;stroke-width:10.5833;stroke-linecap:square;stroke-miterlimit:4;stroke-dasharray:none;stroke-opacity:1;paint-order:stroke markers fill"
      id="rect5892" width="264.58334" height="264.58334" x="-6.7529299e-06" y="-6.7529299e-06" />
   <g id="g7013" transform="rotate(45,-488.91681,615.71166)">
      <path id="rect3527"
         style="fill:none;fill-opacity:0.211765;stroke:#000000;stroke-width:39;stroke-linecap:round;stroke-opacity:1;paint-order:fill markers stroke"
         d="m -1563.3597,-678.29043 c -0.8356,-5.69912 -1.2711,-11.56542 -1.2711,-17.55691 v -98.18927 c 0,-55.90157 37.91,-100.90537 85,-100.90537 v 0 c 47.09,0 85,45.0038 85,100.90537 v 98.18927 c 0,53.62129 -34.8803,97.21572 -79.2852,100.68304"
         transform="scale(0.26458333)" />
      <path id="path3614"
         style="fill:none;fill-opacity:0.211765;stroke:#000000;stroke-width:9.9375;stroke-linecap:round;paint-order:fill markers stroke"
         d="m -369.33237,-151.2929 c 0.22108,1.50789 0.33631,3.06002 0.33631,4.64526 v 25.97925 c 0,14.79062 -10.03036,26.697874 -22.48959,26.697874 v 0 c -12.45922,0 -22.48958,-11.907254 -22.48958,-26.697874 v -25.97925 c 0,-14.18729 9.22875,-25.72165 20.97754,-26.63905" />  
         
   </g>
</svg>